<svg xmlns="http://www.w3.org/2000/svg" viewBox="0 0 2206.4 440.3"><defs><style>.cls-1{fill:#fff;}.cls-2{fill:#fa0;}</style></defs><title>footer_tabelog_rst_re1</title><g id="レイヤー_2" data-name="レイヤー 2"><g id="レイヤー_1-2" data-name="レイヤー 1"><g id="color_yoko_nuri"><path class="cls-1" d="M497.7,92.7a82.9,82.9,0,0,1,10.9,7.3l-78,39.6a101.9,101.9,0,0,0-10-5.6l-11.3-5.4c-6.8-3.2-15.5-7.3-24-11.5l74.9-43.5C474.6,80.7,489.2,88,497.7,92.7ZM282.5,125c3.4,4.1,11.5,4.8,14.3,4.8a1.6,1.6,0,0,1,.7,0h.2c1,.1,8.9.2,13.6-9.1a27.5,27.5,0,0,1,6.7-12.9c8-8.3,22.4-13,34.5-8.5l70.2-43.7-4.9-2.3-.8-.5c-.4-.3-11.7-7.7-31.3,0-22.9,8.8-43.6,15.3-43.8,15.3-5.1,1.7-14.3,5.7-17.2,9.5-4,5.4-22.9,28.1-31.7,32.9-5.6,3.2-10.4,8.3-11.1,11.9A3,3,0,0,0,282.5,125Zm16.2,71.5c18.4-4.8,22.9-13.3,23-13.4h0a67.1,67.1,0,0,0,4.9-18.8,53.4,53.4,0,0,1-7.9-8.6l-28.9,16.8c-1.5,4.3-2.5,7.3-2.6,7.7-.3,3.4-.2,12.3,3.6,15.6C291.4,196.4,293.3,198,298.7,196.5Zm31.3-5.7,20.3-10.3-13.8-9a71,71,0,0,1-5,16.2h-.1C331,188.7,330.5,189.8,330,190.8Zm11.1,50.4a75.2,75.2,0,0,1,6.2-25.6l-34,15.9c-4.4,12.2-7.8,23.2-8.4,29.9a14,14,0,0,0,0,4.1c1.2,7.1,4,12.1,7.3,13.4s7.1-.3,11.8-4C326.3,272.4,340.4,256.2,341.1,241.2ZM591.7,393.8c39.6-19.3,42.8-79.1,42.2-104.2-8.2-2.4-16.4-5.5-23-9.5a86.7,86.7,0,0,1-40.7-55c-4.2-17.3-15.7-48.3-23.3-68.7l-5.6-15.3a66.9,66.9,0,0,0-7-13.4l-74.4,35c9.5,7.9,20.4,16.7,25.8,20.2,11.3,7.5,18.4,1.2,19.2.4a5.4,5.4,0,0,1,7.7,7.6c-4.7,4.8-17.6,11.2-32.8,1.1-11.4-7.5-43.4-34.9-44.6-36a117.6,117.6,0,0,0-19.4-12.3l-11.1-5.3c-16.9-7.9-42.4-19.9-52.4-27s-21-1.8-26.5,3.9c-3.7,3.8-5.5,10.9-4.7,18.1s4,17.8,18.1,26.9,62.4,40.6,69.9,48.1l3.3,3.1c9.2,8.6,26.5,24.6,28.9,43.8s25.7,64.4,51.3,76.6a5.4,5.4,0,0,1-4.7,9.8c-29.2-13.9-54.6-63.5-57.3-85-1.9-15.4-17.9-30.2-25.6-37.3l-3.6-3.4c-2.1-2.1-9.9-7.8-21.5-15.8L363.5,208c-3.4,4.9-11,19.2-11.6,33.7-.7,16.8-13.7,33.4-18.5,39,.9,5.3,3.1,12.8,6.6,15.5a4,4,0,0,0,3.1,1c4.7-.5,12.5-5.7,18.3-14.4,3.7-5.6,9.3-17,5.2-30.7v-.2h0c-1.4-5.4-4.7-15.4-7.5-19a5.4,5.4,0,0,1,1.1-7.6,5.5,5.5,0,0,1,7.6,1c3.7,5,6.8,14.5,8.3,19.6,7.7,1.8,25.7,7.7,34.8,24.6,10.4,19.3,48.1,71,68.8,80.6l14.2,7.1c20.1,10.2,47.7,24.3,86.3,31.4l.9.2Zm106.7-69.7c.7-8,1.2-16.8,1.5-26l-55.2-13.4a243.6,243.6,0,0,1-.7,31.9c-2.9,30.6-13.6,70.2-47.3,86.6L652.4,429C659.9,425.3,690.8,405.2,698.4,324.1Z"/><path class="cls-2" d="M710.9,293.9a5.4,5.4,0,0,0-4.2-5.3L640,272.5a5.4,5.4,0,0,0-6.6,5.6,81.9,81.9,0,0,1-16.9-7.3,76.3,76.3,0,0,1-35.8-48.3c-4.4-17.9-16-49.2-23.7-69.9l-5.5-15.1a70.6,70.6,0,0,0-7.4-14.4l26.8-12.6a7.2,7.2,0,0,0,3.4-9.6L564,79.9a7.1,7.1,0,0,0-9.6-3.2L519.1,94.6A101.8,101.8,0,0,0,503,83.3c-7.5-4.2-19.2-10.2-31.5-16.2l58.2-33.8a7,7,0,0,0,2.5-9.8l-12-20a7.2,7.2,0,0,0-9.9-2.4L433.7,48.8l-11.1-5.2c-2.6-1.7-17.3-10-40.9-.9s-42.8,15-43,15.1S322,63.2,316.1,71.1s-22.7,26.9-28.3,30-15,10.9-16.6,19.3a7.7,7.7,0,0,1-.2,1.5,13.5,13.5,0,0,0,3.1,10c3.8,4.5,9.2,6.7,13.8,7.7L3.5,316.8A7.3,7.3,0,0,0,1,326.7l2.3,3.8a7.3,7.3,0,0,0,9.9,2.5L276.3,180.4c-.3,4.8-.1,17.1,7.4,23.6,2.5,2.2,6.7,4.3,12.9,3.8L22.2,347.4a7.2,7.2,0,0,0-3.3,9.7l1.9,3.9a7.3,7.3,0,0,0,9.7,3.4L299.6,237.9c-2.7,8.7-4.9,16.8-5.4,23a22.7,22.7,0,0,0,0,6.4c1.9,11.2,7,19,14.2,21.7,3.5,1.4,8.8,1.8,15.4-1.3,1.5,5.6,4.3,12.8,9.4,17a14.5,14.5,0,0,0,11.1,3.2c8.7-.9,19.2-8.6,26.1-19.1a48.7,48.7,0,0,0,8.3-22.8,54.7,54.7,0,0,0,0-8.1c7,2.4,17.2,7.6,22.7,17.7,10.6,19.8,49.6,74.1,73.7,85.3l13.8,6.9c20.7,10.5,49,24.9,88.8,32.3l.6.2a8.6,8.6,0,0,0-.7,2.1,5.4,5.4,0,0,0,3.2,5.4l69.2,32a6.2,6.2,0,0,0,3.8.3C656.1,439.4,708.6,422.5,710.9,293.9ZM497.7,92.7a82.9,82.9,0,0,1,10.9,7.3l-78,39.6a101.9,101.9,0,0,0-10-5.6l-11.3-5.4c-6.8-3.2-15.5-7.3-24-11.5l74.9-43.5C474.6,80.7,489.2,88,497.7,92.7ZM281.9,122.4c.7-3.6,5.5-8.7,11.1-11.9,8.8-4.8,27.7-27.5,31.7-32.9,2.9-3.8,12.1-7.8,17.2-9.5.2,0,20.9-6.5,43.8-15.3,19.6-7.7,30.9-.3,31.3,0l.8.5,4.9,2.3L352.5,99.3c-12.1-4.5-26.5.2-34.5,8.5a27.5,27.5,0,0,0-6.7,12.9c-4.7,9.3-12.6,9.2-13.6,9.1h-.2a1.6,1.6,0,0,0-.7,0c-2.8,0-10.9-.7-14.3-4.8A3,3,0,0,1,281.9,122.4Zm8.9,73.4c-3.8-3.3-3.9-12.2-3.6-15.6.1-.4,1.1-3.4,2.6-7.7l28.9-16.8a53.4,53.4,0,0,0,7.9,8.6,67.1,67.1,0,0,1-4.9,18.8h0c-.1.1-4.6,8.6-23,13.4C293.3,198,291.4,196.4,290.8,195.8Zm40.6-8.1h.1a71,71,0,0,0,5-16.2l13.8,9L330,190.8C330.5,189.8,331,188.7,331.4,187.7ZM324,274.9c-4.7,3.7-8.9,5.1-11.8,4s-6.1-6.3-7.3-13.4a14,14,0,0,1,0-4.1c.6-6.7,4-17.7,8.4-29.9l34-15.9a75.2,75.2,0,0,0-6.2,25.6C340.4,256.2,326.3,272.4,324,274.9ZM581.1,389.8l-.9-.2c-38.6-7.1-66.2-21.2-86.3-31.4l-14.2-7.1c-20.7-9.6-58.4-61.3-68.8-80.6-9.1-16.9-27.1-22.8-34.8-24.6-1.5-5.1-4.6-14.6-8.3-19.6a5.5,5.5,0,0,0-7.6-1,5.4,5.4,0,0,0-1.1,7.6c2.8,3.6,6.1,13.6,7.5,19h0v.2c4.1,13.7-1.5,25.1-5.2,30.7-5.8,8.7-13.6,13.9-18.3,14.4a4,4,0,0,1-3.1-1c-3.5-2.7-5.7-10.2-6.6-15.5,4.8-5.6,17.8-22.2,18.5-39,.6-14.5,8.2-28.8,11.6-33.7l16.4-7.8c11.6,8,19.4,13.7,21.5,15.8l3.6,3.4c7.7,7.1,23.7,21.9,25.6,37.3,2.7,21.5,28.1,71.1,57.3,85a5.4,5.4,0,0,0,4.7-9.8c-25.6-12.2-48.9-57.6-51.3-76.6s-19.7-35.2-28.9-43.8l-3.3-3.1c-7.5-7.5-55.4-38.7-69.9-48.1s-17.4-20.8-18.1-26.9,1-14.3,4.7-18.1c5.5-5.7,17.8-10.2,26.5-3.9s35.5,19.1,52.4,27l11.1,5.3A117.6,117.6,0,0,1,435.2,156c1.2,1.1,33.2,28.5,44.6,36,15.2,10.1,28.1,3.7,32.8-1.1a5.4,5.4,0,0,0-7.7-7.6c-.8.8-7.9,7.1-19.2-.4-5.4-3.5-16.3-12.3-25.8-20.2l74.4-35a66.9,66.9,0,0,1,7,13.4l5.6,15.3c7.6,20.4,19.1,51.4,23.3,68.7a86.7,86.7,0,0,0,40.7,55c6.6,4,14.8,7.1,23,9.5.6,25.1-2.6,84.9-42.2,104.2ZM652.4,429l-55.7-25.8c33.7-16.4,44.4-56,47.3-86.6a243.6,243.6,0,0,0,.7-31.9l55.2,13.4c-.3,9.2-.8,18-1.5,26C690.8,405.2,659.9,425.3,652.4,429Z"/><path d="M1062.2,43.8a16.5,16.5,0,0,0-10-3.4H975.4a16.5,16.5,0,0,0-10,3.4L833.8,145a5.6,5.6,0,0,0-1,7.8l16.9,22c1.8,2.3,5.1,3.1,7.4,1.3l34.2-26.3V358.9a5.5,5.5,0,0,1-5.3,5.6h-8.7a3.1,3.1,0,0,0-3.3,2.8v33.3a2.7,2.7,0,0,0,2.8,2.7h74.9a17,17,0,0,0,5.4-.9l44.7-16.3a2.9,2.9,0,0,0,1.7-3.6l-11.4-31.3a2.8,2.8,0,0,0-3.5-1.7l-36.2,13.2a31.2,31.2,0,0,1-10.9,1.8h-5.9a5.5,5.5,0,0,1-5.5-5.6V296a5.6,5.6,0,0,1,5.6-5.5H1002a11.2,11.2,0,0,1,8.9,4.4l83.5,106.3a6,6,0,0,0,4.5,2.1h70.2a2.7,2.7,0,0,0,2.7-2.7V367.3a3,3,0,0,0-3.2-2.8h-48.1a11,11,0,0,1-8.6-4c-1.4-1.7-3-3.9-5-6.3s-1.2-5.7,1.5-6.8l22-8.9a2.7,2.7,0,0,0,1.5-3.6L1119.5,304a2.8,2.8,0,0,0-3.6-1.5l-32.5,13.1a7.4,7.4,0,0,1-8.5-2.2l-14.8-18.8c-1.3-1.7.2-4.1,2.4-4.1h71.1a2.7,2.7,0,0,0,2.7-2.8V149.8l33.5,25.7a5.7,5.7,0,0,0,8.1-.7l16.9-22a5.6,5.6,0,0,0-1-7.8Zm35.3,202c0,3.1-2.3,5.9-5.4,5.9H936a5.8,5.8,0,0,1-5.9-5.7v-7.1a5.5,5.5,0,0,1,5.6-5.4h156.2a5.9,5.9,0,0,1,5.6,6Zm0-56.9a5.6,5.6,0,0,1-5.6,5.8H935.7a5.6,5.6,0,0,1-5.6-5.8v-7a5.4,5.4,0,0,1,5.4-5.3h156.1c3.1,0,5.9,2.2,5.9,5.3Zm19.4-51.2h-78.1a5.5,5.5,0,0,1-5.6-5.5v-7.7a2.7,2.7,0,0,0-2.8-2.8H997.2a2.7,2.7,0,0,0-2.8,2.8v7.7a5.5,5.5,0,0,1-5.6,5.5H907l73.4-56.4a9.3,9.3,0,0,1,5.5-2h55.4a8.3,8.3,0,0,1,5.3,1.6l74,56.8Z"/><rect x="1394.8" y="129.3" width="38.8" height="40.23" rx="5.5"/><rect x="1451.6" y="129.3" width="38.8" height="40.23" rx="5.5"/><rect x="2110.7" y="59.9" width="38.8" height="40.23" rx="5.5"/><path d="M2173.1,59.9h27.7a5.6,5.6,0,0,1,5.6,5.6V94.6a5.5,5.5,0,0,1-5.5,5.5h-27.7a5.6,5.6,0,0,1-5.6-5.6V65.4A5.5,5.5,0,0,1,2173.1,59.9Z"/><path d="M1844.5,137.1H1618.3a2.7,2.7,0,0,0-2.7,2.8V371.6a2.7,2.7,0,0,0,2.7,2.7h226.2a2.8,2.8,0,0,0,2.8-2.7V139.9A2.8,2.8,0,0,0,1844.5,137.1ZM1802.9,324c0,3.1-2.3,5.9-5.4,5.9H1665.8a5.6,5.6,0,0,1-5.8-5.4V187.4a5.8,5.8,0,0,1,5.8-5.9h131.7a5.4,5.4,0,0,1,5.4,5.4Z"/><path d="M2164.6,135.8H2009.2a2.7,2.7,0,0,1-2.8-2.8v-5.7a5.6,5.6,0,0,0-5.6-5.6h-33.3a5.7,5.7,0,0,0-5.5,5.7v61.4a8.5,8.5,0,0,1-1.6,4.6l-19,26.5a5.5,5.5,0,0,0,1.5,7.5l27.1,19.4a5.6,5.6,0,0,0,7.7-1.3l25.5-35.6a17.5,17.5,0,0,0,3.2-10.1V183a3,3,0,0,1,3.2-2.8h113.8c1.5,0,2.3,1.4,2.3,2.9V288.7a7,7,0,0,1-2,5l-83.4,83.4a5.5,5.5,0,0,0,.1,7.8l23.5,23.5a5.6,5.6,0,0,0,7.9,0l94.4-94.4a13.3,13.3,0,0,0,3.9-9.4V141.4A5.6,5.6,0,0,0,2164.6,135.8Z"/><path d="M1369,192.9a13.1,13.1,0,0,0-9.5-4h-93.8a5.6,5.6,0,0,0-5.5,5.6v84.6a5.6,5.6,0,0,0,5.5,5.6H1299a5.6,5.6,0,0,0,5.6-5.6V236.4a3.2,3.2,0,0,1,3.3-3.1h36.2a6.7,6.7,0,0,1,4.6,2l140,140a5.7,5.7,0,0,0,8,.2l23.6-23.5a5.6,5.6,0,0,0,0-7.9Z"/></g></g></g></svg>